<svg width="73" height="72" viewBox="0 0 73 72" fill="none" xmlns="http://www.w3.org/2000/svg">
<path d="M0.5 36C0.5 16.1177 16.6177 0 36.5 0V0C56.3823 0 72.5 16.1177 72.5 36V36C72.5 55.8823 56.3823 72 36.5 72V72C16.6177 72 0.5 55.8823 0.5 36V36Z" fill="#26335D"/>
<g clip-path="url(#clip0_2690_6971)">
<g clip-path="url(#clip1_2690_6971)">
<g clip-path="url(#clip2_2690_6971)">
<path d="M31.2754 43.6055H40.7247V48.3301H31.2754V43.6055Z" fill="white"/>
<path d="M36.0002 25.6523C30.2688 25.6523 25.606 30.3153 25.606 36.0466V50.2206C25.606 52.3047 27.3015 54.0003 29.3857 54.0003H42.6147C44.6989 54.0003 46.3945 52.3047 46.3945 50.2206V36.0466C46.3945 30.3152 41.7317 25.6523 36.0002 25.6523V25.6523ZM30.3306 34.1567H41.6698V36.0466H39.7799V37.9365H37.8901V36.0466H30.3306V34.1567ZM42.6147 50.2206H29.3857V41.7162H42.6147V50.2206Z" fill="white"/>
<path d="M45.7052 23.8388L40.342 22L39.5576 24.288C41.4528 24.8625 43.1555 25.8834 44.5431 27.228L45.7052 23.8388Z" fill="white"/>
<path d="M32.443 24.288L31.6585 22L26.2954 23.8388L27.4574 27.228C28.8451 25.8834 30.5478 24.8625 32.443 24.288V24.288Z" fill="white"/>
</g>
</g>
</g>
<defs>
<clipPath id="clip0_2690_6971">
<rect width="32" height="32" fill="white" transform="translate(20 22)"/>
</clipPath>
<clipPath id="clip1_2690_6971">
<rect width="32" height="32" fill="white" transform="translate(20 22)"/>
</clipPath>
<clipPath id="clip2_2690_6971">
<rect width="20.7885" height="32" fill="white" transform="translate(25.606 22)"/>
</clipPath>
</defs>
</svg>
