<svg width="72" height="72" viewBox="0 0 72 72" fill="none" xmlns="http://www.w3.org/2000/svg">
<path d="M0 36C0 16.1177 16.1177 0 36 0V0C55.8823 0 72 16.1177 72 36V36C72 55.8823 55.8823 72 36 72V72C16.1177 72 0 55.8823 0 36V36Z" fill="#26335D"/>
<g clip-path="url(#clip0_2690_6982)">
<g clip-path="url(#clip1_2690_6982)">
<g clip-path="url(#clip2_2690_6982)">
<path d="M25.6134 47.5456H47.4108C47.4775 47.5456 47.5422 47.5361 47.6043 47.5213C47.6093 47.5213 47.6134 47.5221 47.6183 47.5221C48.0836 47.5221 48.4617 47.1445 48.4617 46.6788V22.8433C48.4617 22.3778 48.0836 22 47.6183 22H47.4125H26.9622H25.6146C23.3698 22 21.544 23.8263 21.544 26.0704C21.544 26.1005 21.5499 26.129 21.5528 26.1581C21.5499 28.2311 21.5242 47.2792 21.5499 49.7833C21.5483 49.8322 21.5423 49.88 21.5423 49.9295C21.5423 52.0873 23.2319 53.8538 25.3571 53.9873C25.3998 53.9939 25.4416 54.0001 25.4858 54.0001H47.6183C48.0836 54.0001 48.4616 53.6225 48.4616 53.1567V49.9823C48.4616 49.5169 48.0835 49.139 47.6183 49.139C47.153 49.139 46.7749 49.517 46.7749 49.9823V52.3135H25.6134C24.3318 52.3135 23.2857 51.296 23.2343 50.0272C23.2355 50.0045 23.2396 49.9831 23.2392 49.9601C23.2384 49.923 23.2371 49.8654 23.2363 49.7888C23.31 48.54 24.3465 47.5456 25.6134 47.5456ZM26.1884 26.0704C26.1884 25.6049 26.5662 25.227 27.0317 25.227C27.4973 25.227 27.8751 25.6049 27.8751 26.0704V43.2008C27.8751 43.6661 27.4973 44.0441 27.0317 44.0441C26.5662 44.0441 26.1884 43.666 26.1884 43.2008V26.0704Z" fill="white"/>
</g>
</g>
</g>
<defs>
<clipPath id="clip0_2690_6982">
<rect width="32" height="32" fill="white" transform="translate(19 22)"/>
</clipPath>
<clipPath id="clip1_2690_6982">
<rect width="32" height="32" fill="white" transform="translate(19 22)"/>
</clipPath>
<clipPath id="clip2_2690_6982">
<rect width="26.9231" height="32.0001" fill="white" transform="translate(21.5386 22)"/>
</clipPath>
</defs>
</svg>
